<?xml version="1.0" encoding="UTF-8"?>
<svg id="Layer_1" data-name="Layer 1" xmlns="http://www.w3.org/2000/svg" viewBox="0 0 70 70">
  <defs>
    <style>
      .cls-1 {
        fill: #403b61;
      }
    </style>
  </defs>
  <g id="Layer_2" data-name="Layer 2">
    <g id="Layer_1-2" data-name="Layer 1-2">
      <path class="cls-1" d="M45.84,22.61c.37-4.99-1.39-9.96-4.98-14.02-3.75-4.25-9.12-7.09-15.11-7.98-1.16-.17-2.32-.27-3.49-.29h-4.28V56.87c-1.37-.95-2.64-2.05-3.76-3.28l-.35-.39-6.06,5.52,.35,.39c4.26,4.68,10.2,8.11,16.71,9.65,2.6,.62,5.26,.93,7.93,.94,4.94,0,9.77-1.12,13.97-3.23,6.75-3.4,11.36-9.03,12.98-15.83,1.23-5.17,.52-10.58-2.05-15.64-2.5-4.93-6.6-9.2-11.87-12.36Zm-8.25,.13c-.73,4.89-5.38,8.79-11.4,9.64V9.03c3.4,.82,6.41,2.58,8.53,4.98,2.3,2.61,3.32,5.71,2.87,8.73h0Zm-11.4,17.89c4.09-.38,7.94-1.72,11.17-3.89,2.45-1.65,4.42-3.68,5.87-6.05,6.7,4.7,10.05,11.73,8.56,18.05-1.05,4.41-4.13,8.11-8.69,10.41-3.06,1.54-6.62,2.36-10.28,2.36-2.04,0-4.07-.25-6.05-.72-.19-.04-.38-.09-.58-.14v-20Z"/>
      <path class="cls-1" d="M60.55,13.39c-1.08-1.07-2.38-1.62-3.86-1.62s-2.77,.55-3.86,1.64-1.64,2.39-1.64,3.85,.55,2.82,1.64,3.88,2.38,1.59,3.87,1.59,2.78-.53,3.86-1.57,1.63-2.36,1.63-3.9-.55-2.8-1.62-3.88Z"/>
    </g>
  </g>
</svg>