<svg width="35" height="50" viewBox="0 0 35 50" fill="none" xmlns="http://www.w3.org/2000/svg">
<path d="M8.077 2.39052L7.59473 1.38687L10.793 0L11.3197 1.0584L8.077 2.39052Z" fill="#F8E6E7"/>
<path d="M16.4473 46.6151H25.0439C24.1912 45.2903 22.2835 42.2066 21.4741 40.4701C20.4624 38.2995 22.9058 37.3855 24.3185 36.4716C25.4486 35.7405 25.5571 35.1448 25.4702 34.9384L16.6382 38.558L16.4473 46.6151Z" fill="#F8E6E7"/>
<path d="M21.0947 30.1573L20.2207 28.2833L22.8298 27.2611L23.7038 29.0865L21.0947 30.1573Z" fill="#2C2842"/>
<path d="M26.1458 27.5369L24.7197 26.0849L26.7263 24.2729L28.2028 25.7369L26.1458 27.5369Z" fill="#2C2842"/>
<path d="M23.8951 25.967L23.0752 25.1582L25.8807 22.756L26.6877 23.5648L26.7518 24.2891L24.7149 26.1119L23.8951 25.967Z" fill="#4A4663"/>
<path d="M29.9695 23.6294L28.1064 22.6665L29.4591 20.3195L31.3476 21.2944L29.9695 23.6294Z" fill="#2C2842"/>
<path d="M23.1719 22.2312L16.8829 8.2749L11.2715 10.611L18.0356 25.4223L20.5689 24.4349L23.1719 22.2312Z" fill="#F8E6E7"/>
<path d="M27.34 22.756L26.8008 22.4436L28.5854 19.3081L29.2274 19.6805L29.5098 20.3293L28.1232 22.6599L27.34 22.756Z" fill="#4A4663"/>
<path d="M19.5687 27.9221L19.3018 27.3214L22.8233 25.928L23.0267 26.5286L22.8233 27.3094L20.2552 28.3185L19.5687 27.9221Z" fill="#4A4663"/>
<path d="M6.38724 18.5868L9.65699 17.2853L14.5426 28.095L12.9901 28.6253C10.2907 25.8415 8.32627 26.3112 7.55319 26.8176C5.27197 28.3119 5.28887 31.6219 5.62683 33.1805C6.27317 37.4466 9.72035 40.2183 11.8115 40.7365C14.8911 41.6042 16.2472 39.676 16.6781 38.5673L16.9315 38.953L9.65699 46.5692C4.40511 44.5639 1.46994 38.0531 0.658835 35.0484C-1.85558 26.7188 3.4301 20.6033 6.38724 18.5868Z" fill="#F8E6E7"/>
<path d="M12.8984 27.466L14.5854 28.0757L12.8984 28.7095C8.42326 24.2476 6.25589 27.6874 5.7316 29.965C5.14303 34.9097 7.88797 38.2545 9.33401 39.3088C13.941 42.5731 16.1245 40.1217 16.6403 38.4879L17.1732 38.9225L13.0633 43.0754C8.07063 42.38 5.52019 38.4396 4.86905 36.5564C2.35243 31.1867 3.95576 27.3815 5.072 26.1502C7.81186 22.8859 11.4312 25.6673 12.8984 27.466Z" fill="#EEDCDD"/>
<path d="M11.2433 10.5735L9.98489 11.086L12.2475 16.2109L9.57812 17.3022L14.5546 28.0887L17.2049 27.0878L16.7156 25.9302L18.0439 25.4237L11.2433 10.5735Z" fill="#EEDCDD"/>
<path d="M21.7531 23.5374L15.1416 8.94827L16.3027 8.45874L22.7366 22.6551L21.7531 23.5374Z" fill="#EEDCDD"/>
<path d="M11.4014 0.991401L8.17841 2.32431L7.59473 2.56571L10.4878 8.81045L9.94215 11.1251L16.8829 8.25589L14.7766 7.07446L11.9089 0.781494L11.4014 0.991401Z" fill="#2C2842"/>
<ellipse cx="12.2148" cy="19.7907" rx="2.29785" ry="2.18365" fill="#2C2842"/>
<ellipse cx="12.2151" cy="19.7907" rx="1.33034" ry="1.26422" fill="#67637D"/>
<path d="M7.69141 49.3275C7.69141 47.8041 8.92634 46.5692 10.4497 46.5692H31.0077C32.5311 46.5692 33.766 47.8041 33.766 49.3275H7.69141Z" fill="#4A4663"/>
<path d="M7.69141 49.3275C7.69141 48.058 8.72052 47.0289 9.98998 47.0289H31.4674C32.7369 47.0289 33.766 48.058 33.766 49.3275H7.69141Z" fill="#2C2842"/>
<path d="M13.2487 7.72325L10.3525 1.46795L11.3008 1.05737L14.2226 7.33682L13.2487 7.72325Z" fill="#4A4663"/>
<path d="M18.9766 27.3519L28.668 19.0824C28.12 20.8761 26.2705 23.2533 25.2937 24.2177C23.0168 26.267 20.2197 27.1027 18.9766 27.3519Z" fill="#F8E6E7"/>
<path d="M28.6683 19.0824L27.831 18.1663L18.1396 26.5322L18.9769 27.3519L28.6683 19.0824Z" fill="#2C2842"/>
<path d="M16.9013 39.0299L9.57812 46.5692H20.2208V39.0299H16.9013Z" fill="#2C2842"/>
<ellipse cx="17.9236" cy="41.1446" rx="1.37871" ry="1.2872" fill="#F8EAF2"/>
<path d="M16.4597 38.6621L15.6738 36.9496L33.3549 29.7437L34.1534 31.4562L16.4597 38.6621Z" fill="#2C2842"/>
<path d="M29.1345 33.4673L28.3486 31.7707L32.3876 30.1573L33.1862 31.854L29.1345 33.4673Z" fill="#4A4663"/>
</svg>
