<svg width="39" height="50" viewBox="0 0 39 50" fill="none" xmlns="http://www.w3.org/2000/svg">
<path fill-rule="evenodd" clip-rule="evenodd" d="M7.79649 20.6896C8.9922 17.4244 8.1263 16.7652 8.33895 12.6595C8.72097 5.39201 11.5008 1.67333 16.1983 0.819992C21.0257 -0.94673 26.7484 0.819994 29.3805 4.13116C43.5367 21.9478 32.0915 34.0645 21.1684 35.0239C12.7614 35.7623 3.59812 32.1586 7.79649 20.6896Z" fill="#2C2842"/>
<path fill-rule="evenodd" clip-rule="evenodd" d="M6.20984 30.9304C3.20037 36.4015 1.57861 39.9841 0.0980463 45.6188C-0.537937 48.034 2.03779 50.8278 4.42273 48.1913C9.47498 42.6154 10.7533 39.0443 12.6549 33.4275C14.7524 27.2059 9.43682 25.063 6.20984 30.9304Z" fill="#F8E6E7"/>
<path fill-rule="evenodd" clip-rule="evenodd" d="M16.7428 45.1456C13.9993 44.758 8.45281 47.2685 8.45281 46.2519C8.65539 42.5473 7.00312 43.9707 7.42739 38.9221C7.72679 35.3146 9.60096 32.7903 10.5145 26.9792C13.6117 25.1601 26.6353 23.1162 34.0326 28.7893C36.7617 45.4231 30.7673 39.1958 30.6985 47.8366C30.3527 49.2798 26.4044 45.6838 24.0785 46.2519C19.9931 46.5808 20.2317 44.9961 16.7428 45.1456Z" fill="#4A4663"/>
<path fill-rule="evenodd" clip-rule="evenodd" d="M25.4447 24.8768C20.5625 33.8304 13.1945 36.2476 12.9775 25.7336C16.3336 24.4286 21.0053 24.2102 25.4447 24.8768Z" fill="#D6A498"/>
<path opacity="0.15" fill-rule="evenodd" clip-rule="evenodd" d="M11.1252 26.9586C8.61679 35.9345 7.09756 41.4583 7.15489 46.8993C7.6916 47.0788 7.66178 46.0316 8.40721 46.4505C9.59989 46.3308 7.06834 45.9794 9.80861 45.8221C9.9577 45.6426 10.3376 46.3607 10.554 46.1513C11.0388 38.3747 12.0896 32.4135 14.3063 25.0243C12.8336 25.7159 12.0323 26.3603 11.1214 26.9586H11.1252ZM25.731 47.1387C29.5885 47.6667 26.5062 47.1816 28.0865 47.6773C29.3985 46.8525 28.3251 48.2757 30.0545 47.9167C30.0201 42.0614 33.2143 35.6673 31.8512 26.9496C30.3836 26.226 27.9873 25.032 24.5005 24.5104C21.912 29.3481 20.8064 36.3279 20.0657 46.3308C21.3815 46.5103 21.646 46.4206 23.3158 46.7198L25.731 47.1387Z" fill="black"/>
<path fill-rule="evenodd" clip-rule="evenodd" d="M7.5126 29.1141C8.27068 33.479 7.48948 40.4817 6.59082 46.9288C6.59081 47.3472 6.85902 46.4208 7.27622 46.63C7.54442 46.63 7.54442 46.1219 7.90202 46.3311C8.40862 46.1817 8.0808 46.4208 8.85562 46.3311C9.39201 46.1219 9.39569 46.6001 9.95821 46.3311C10.4967 37.304 11.7479 30.2699 14.7661 24.7842C12.3623 25.7062 9.21236 26.8043 7.50879 29.1116L7.5126 29.1141ZM25.5734 46.7794C26.3605 46.9587 26.1817 47.3472 28.5236 47.3472C29.9663 47.7058 29.3703 47.7656 30.1328 47.7656C30.9672 47.3173 30.8054 48.8117 33.1724 48.4231C34.8792 42.1619 37.5224 35.6223 36.514 29.1754C32.3022 26.2386 28.401 25.2733 24.7074 24.3054C22.8246 28.2773 20.9246 36.1326 20.9246 46.2415C20.9246 46.7495 22.3252 46.3908 23.249 46.5403L25.5734 46.7794Z" fill="#EEDCDD"/>
<path fill-rule="evenodd" clip-rule="evenodd" d="M30.1382 32.6876C28.6104 37.142 27.4687 41.9534 26.8971 46.5353C26.6993 48.121 27.9494 47.5518 28.2165 47.9686C29.2882 48.2083 29.6173 48.1793 31.0758 48.5973C31.6714 48.687 33.3491 49.5137 34.1311 47.9685C35.8953 44.4823 36.9531 41.1604 38.0273 37.8262C41.2996 27.646 32.196 26.6777 30.1382 32.6876Z" fill="#F8E6E7"/>
<path fill-rule="evenodd" clip-rule="evenodd" d="M22.3593 35.116L27.6422 35.5992L27.2536 38.8561L21.9707 38.3729L22.3593 35.116Z" fill="#9992BC"/>
<path fill-rule="evenodd" clip-rule="evenodd" d="M24.7102 34.3475L25.5476 34.423L25.3133 36.3457L24.4746 36.2702L24.7102 34.3475Z" fill="#2C2842"/>
<path fill-rule="evenodd" clip-rule="evenodd" d="M22.7566 36.2943L24.8833 36.4951L24.8653 36.6537L22.7373 36.4529L22.7566 36.2943Z" fill="white"/>
<path fill-rule="evenodd" clip-rule="evenodd" d="M22.7046 36.7555L24.8325 36.9265L24.8145 37.0635L22.6865 36.8914L22.7046 36.7555Z" fill="white"/>
<path fill-rule="evenodd" clip-rule="evenodd" d="M22.6528 37.1654L24.7808 37.3649L24.7627 37.5248L22.6348 37.324L22.6528 37.1654Z" fill="white"/>
<path fill-rule="evenodd" clip-rule="evenodd" d="M22.6033 37.5752L24.73 37.7753L24.7106 37.9346L22.584 37.7345L22.6033 37.5752Z" fill="white"/>
<path fill-rule="evenodd" clip-rule="evenodd" d="M26.7144 36.2012L26.1159 36.1407L26.0312 36.8054L25.4275 36.745L25.3428 37.4034L25.9464 37.465L25.8617 38.1297L26.4601 38.1901L26.5449 37.5255L27.1485 37.5859L27.2333 36.9263L26.6296 36.8658L26.7144 36.2012Z" fill="white"/>
<path fill-rule="evenodd" clip-rule="evenodd" d="M23.7666 17.2863C22.0329 17.4487 17.9181 18.6215 16.1832 18.784C16.4012 20.8904 16.456 24.3629 14.5107 25.2428C16.1475 27.7599 22.5709 27.0079 24.3721 24.7376C21.7092 24.5957 23.5524 19.7035 23.7666 17.2863Z" fill="#D6A498"/>
<path fill-rule="evenodd" clip-rule="evenodd" d="M16.3041 21.3182C15.5552 26.4588 22.5381 23.4415 23.4013 19.6431L16.3041 21.3182Z" fill="#A8796D"/>
<path fill-rule="evenodd" clip-rule="evenodd" d="M20.633 1.71948C8.93825 0.403276 9.77387 21.2388 18.1593 21.8323C26.6314 22.4373 33.343 3.14953 20.633 1.71948Z" fill="#D6A498"/>
<path fill-rule="evenodd" clip-rule="evenodd" d="M23.5547 8.88684C25.0646 10.8935 25.9326 12.1645 26.4141 14.161C28.7021 10.3797 25.3201 8.09387 23.5547 8.88684Z" fill="#1C2442"/>
<path fill-rule="evenodd" clip-rule="evenodd" d="M27.9934 11.2125C27.4873 11.0478 26.7853 11.7741 26.4227 12.836C26.0601 13.898 26.178 14.8936 26.6789 15.0595C27.1799 15.2254 27.8871 14.4979 28.2484 13.4359C28.6096 12.374 28.4982 11.3822 27.9934 11.2125Z" fill="#D6A498"/>
<path fill-rule="evenodd" clip-rule="evenodd" d="M28.0085 16.6202C28.3792 13.3376 26.5053 11.7837 24.0148 10.2298C21.3395 8.56111 17.8223 5.99806 15.6744 3.79096C13.3814 6.04654 12.147 8.00104 11.8527 12.2035C8.90485 8.27278 12.1992 0.366766 19.7752 1.09141C28.9053 1.96532 31.2239 10.9889 28.0085 16.6202Z" fill="#4A4663"/>
<path fill-rule="evenodd" clip-rule="evenodd" d="M18.0581 2.74536C19.9912 6.29503 29.3899 10.1048 30.4493 18.3236C30.6846 20.1482 30.9784 20.0857 31.2518 18.1043C32.5847 8.44728 22.4763 5.21636 19.0424 2.58088C18.4943 2.16522 16.977 0.762697 18.0581 2.74536Z" fill="#67637D"/>
<path fill-rule="evenodd" clip-rule="evenodd" d="M9.14934 13.1263C8.87995 10.3494 9.49278 4.98726 13.5975 2.64577C15.9135 1.32821 15.7679 1.93592 14.3252 3.34158C11.2457 6.35206 10.5806 10.1835 10.0597 12.7535C9.7111 14.4745 9.35745 15.2597 9.14934 13.1263Z" fill="#67637D"/>
<path d="M2.71094 42.9606C7.4229 40.4786 14.1885 37.906 32.6069 43.1002" stroke="#F8E6E7" stroke-width="3.6" stroke-linecap="round"/>
<path d="M22.0993 42.3943C16.4361 41.3023 11.8377 41.8107 9.96387 42.2459L10.2018 38.6851C16.8406 37.5219 20.7212 38.3785 22.2778 38.8631L22.0993 42.3943Z" fill="#4A4663"/>
<path d="M6.38672 43.3139C6.62569 42.8858 6.98347 40.1354 7.093 39.1047L10.2699 38.0511C10.1803 38.7053 9.97123 42.1543 9.97123 42.2733C8.20884 42.6301 7.32267 42.9571 6.38672 43.3139Z" fill="#F8E6E7"/>
<path d="M21.0676 42.2463C20.8532 40.8305 20.9783 38.4168 21.0676 37.387L27.5916 37.5669C27.2103 38.8868 26.966 42.0963 26.9362 43.4162C25.5063 43.0082 22.428 42.4663 21.0676 42.2463Z" fill="#F8E6E7"/>
<path d="M20.1902 42.0915C20.1431 41.5893 20.3275 39.0525 20.4256 37.8468L21.0141 37.9365C20.9199 39.8735 21.0239 41.6232 21.1023 42.241C20.7728 42.1931 20.3569 42.1114 20.1902 42.0915Z" fill="#3F3B54"/>
<path d="M9.96387 42.2409C9.99382 41.7039 10.1336 39.7048 10.2035 38.571L10.8325 38.1533C10.7726 38.8694 10.7925 40.9679 10.8325 42.0619C10.5689 42.1096 10.1635 42.2111 9.96387 42.2409Z" fill="#3F3B54"/>
</svg>
