<svg width="27" height="27" viewBox="0 0 27 27" fill="none" xmlns="http://www.w3.org/2000/svg">
<path d="M13.5 2.475C17.1 2.475 17.55 2.475 19.0125 2.5875C22.725 2.7 24.4125 4.5 24.525 8.1C24.6375 9.5625 24.6375 9.9 24.6375 13.5C24.6375 17.1 24.6375 17.55 24.525 18.9C24.4125 22.5 22.6125 24.3 19.0125 24.4125C17.55 24.525 17.2125 24.525 13.5 24.525C9.9 24.525 9.45 24.525 8.1 24.4125C4.3875 24.3 2.7 22.5 2.5875 18.9C2.475 17.4375 2.475 17.1 2.475 13.5C2.475 9.9 2.475 9.45 2.5875 8.1C2.7 4.5 4.5 2.7 8.1 2.5875C9.45 2.475 9.9 2.475 13.5 2.475ZM13.5 0C9.7875 0 9.3375 0 7.9875 0.1125C3.0375 0.3375 0.3375 3.0375 0.1125 7.9875C0 9.3375 0 9.7875 0 13.5C0 17.2125 0 17.6625 0.1125 19.0125C0.3375 23.9625 3.0375 26.6625 7.9875 26.8875C9.3375 27 9.7875 27 13.5 27C17.2125 27 17.6625 27 19.0125 26.8875C23.9625 26.6625 26.6625 23.9625 26.8875 19.0125C27 17.6625 27 17.2125 27 13.5C27 9.7875 27 9.3375 26.8875 7.9875C26.6625 3.0375 23.9625 0.3375 19.0125 0.1125C17.6625 0 17.2125 0 13.5 0ZM13.5 6.525C9.675 6.525 6.525 9.675 6.525 13.5C6.525 17.325 9.675 20.475 13.5 20.475C17.325 20.475 20.475 17.325 20.475 13.5C20.475 9.675 17.325 6.525 13.5 6.525ZM13.5 18C11.025 18 9 15.975 9 13.5C9 11.025 11.025 9 13.5 9C15.975 9 18 11.025 18 13.5C18 15.975 15.975 18 13.5 18ZM20.7 4.725C19.8 4.725 19.125 5.4 19.125 6.3C19.125 7.2 19.8 7.875 20.7 7.875C21.6 7.875 22.275 7.2 22.275 6.3C22.275 5.4 21.6 4.725 20.7 4.725Z" fill="#2C2842"/>
</svg>
