<svg width="32" height="32" viewBox="0 0 32 32" fill="none" xmlns="http://www.w3.org/2000/svg">
<path d="M3.99999 14.6667H28C28.3536 14.6667 28.6927 14.5262 28.9428 14.2761C29.1928 14.0261 29.3333 13.687 29.3333 13.3333C29.3333 12.9797 29.1928 12.6406 28.9428 12.3905C28.6927 12.1405 28.3536 12 28 12H3.99999C3.64637 12 3.30723 12.1405 3.05718 12.3905C2.80713 12.6406 2.66666 12.9797 2.66666 13.3333C2.66666 13.687 2.80713 14.0261 3.05718 14.2761C3.30723 14.5262 3.64637 14.6667 3.99999 14.6667ZM28 17.3333H3.99999C3.64637 17.3333 3.30723 17.4738 3.05718 17.7239C2.80713 17.9739 2.66666 18.313 2.66666 18.6667C2.66666 19.0203 2.80713 19.3594 3.05718 19.6095C3.30723 19.8595 3.64637 20 3.99999 20H28C28.3536 20 28.6927 19.8595 28.9428 19.6095C29.1928 19.3594 29.3333 19.0203 29.3333 18.6667C29.3333 18.313 29.1928 17.9739 28.9428 17.7239C28.6927 17.4738 28.3536 17.3333 28 17.3333Z" fill="black"/>
</svg>
