<svg width="66" height="67" viewBox="0 0 66 67" fill="none" xmlns="http://www.w3.org/2000/svg">
<path fill-rule="evenodd" clip-rule="evenodd" d="M32.8526 60.6576C36.3564 60.6576 39.8259 59.9626 43.063 58.6122C46.3001 57.2619 49.2414 55.2826 51.719 52.7875C54.1966 50.2924 56.1619 47.3303 57.5028 44.0702C58.8437 40.8102 59.5338 37.3161 59.5338 33.7875C59.5338 30.2589 58.8437 26.7648 57.5028 23.5048C56.1619 20.2447 54.1966 17.2826 51.719 14.7875C49.2414 12.2924 46.3001 10.3131 43.063 8.96278C39.8259 7.61243 36.3564 6.91742 32.8526 6.91742C25.7763 6.91742 18.9898 9.74836 13.9861 14.7875C8.9824 19.8266 6.17135 26.6611 6.17135 33.7875C6.17135 40.9139 8.9824 47.7484 13.9861 52.7875C18.9898 57.8266 25.7763 60.6576 32.8526 60.6576V60.6576ZM32.8526 66.6287C50.8624 66.6287 65.4629 51.9248 65.4629 33.7875C65.4629 15.6502 50.8624 0.946289 32.8526 0.946289C14.8427 0.946289 0.242188 15.6502 0.242188 33.7875C0.242188 51.9248 14.8427 66.6287 32.8526 66.6287Z" fill="#FBFBFF"/>
<path d="M44.7113 33.7875L26.9238 46.715V20.86L44.7113 33.7875Z" fill="#FBFBFF"/>
</svg>
