<svg width="49" height="47" viewBox="0 0 49 47" fill="none" xmlns="http://www.w3.org/2000/svg">
<path d="M49 46.49V35.2555C49 34.8099 48.7082 34.4189 48.28 34.2959C42.017 32.4974 30.2167 29.201 27.8972 28.9143C24.8825 28.5418 20.1721 33.0128 18.8531 33.7579C17.5342 34.5031 14.1427 33.1991 13.0122 33.0128C12.1078 32.8637 11.7561 33.4474 11.6933 33.7579C11.6933 33.7579 8.17616 32.7023 6.60602 32.2676C4.34501 31.8205 4.65904 33.0749 5.09868 33.7579C4.65905 33.5095 3.32759 32.9382 1.51878 32.6402C-0.290026 32.3421 -0.114169 33.2611 0.199859 33.7579L11.3165 39.533C8.92988 39.533 3.70446 39.6075 1.89565 39.9056C0.0868433 40.2036 -0.365325 41.0233 0.576728 41.3959C1.51878 41.7685 6.19157 41.8057 9.80918 42.6999C14.3312 43.8177 19.607 43.2588 22.0563 42.6999C24.5057 42.1411 29.0278 38.7878 31.4772 37.1112C34.2541 39.1343 43.7507 44.2399 48.562 46.756C48.7615 46.8603 49 46.7152 49 46.49Z" fill="#F8E6E7"/>
<path d="M11.7526 33.3963C11.5782 33.3129 11.3692 33.3866 11.2858 33.561C11.2024 33.7354 11.2762 33.9444 11.4506 34.0278L11.7526 33.3963ZM11.4506 34.0278L15.7501 36.0841L16.0521 35.4526L11.7526 33.3963L11.4506 34.0278Z" fill="#2C2842"/>
<path d="M9.1709 39.1572C8.9776 39.1572 8.8209 39.3139 8.8209 39.5072C8.8209 39.7005 8.9776 39.8572 9.1709 39.8572V39.1572ZM11.975 39.1572H9.1709V39.8572H11.975V39.1572Z" fill="#2C2842"/>
<path d="M5.20395 33.3936C5.0281 33.3134 4.82048 33.3908 4.7402 33.5667C4.65993 33.7425 4.7374 33.9502 4.91324 34.0304L5.20395 33.3936ZM4.91324 34.0304L13.5124 37.9561L13.8031 37.3193L5.20395 33.3936L4.91324 34.0304Z" fill="#2C2842"/>
<path d="M26.3699 34.4598C25.2483 35.2699 22.6311 36.89 20.2009 37.2639C17.7707 37.6378 15.1536 39.6941 14.4059 40.4418C13.6582 41.1896 11.4149 41.3765 11.9757 39.6941C12.6961 37.5331 17.3346 34.7091 19.4533 33.5251" stroke="#2C2842" stroke-width="0.7" stroke-linecap="round" stroke-linejoin="round"/>
<path d="M25.4596 10.3534C21.5368 8.9687 18.4187 12.597 17.35 14.5842C13.2009 6.8918 4.7141 10.3534 4.52551 17.4689C4.37463 23.1613 12.5094 29.9691 16.5956 32.6614L21.485 28.5153C29.951 20.7077 31.6619 12.5427 25.4596 10.3534Z" fill="#2C2842"/>
<path d="M24.123 1L25.2538 7.03077" stroke="#2C2842" stroke-width="1.3" stroke-linecap="round" stroke-linejoin="round"/>
<path d="M33.9235 4.01538L30.1543 8.91538" stroke="#2C2842" stroke-width="1.3" stroke-linecap="round" stroke-linejoin="round"/>
<path d="M39.9536 11.9308L33.5459 13.0616" stroke="#2C2842" stroke-width="1.3" stroke-linecap="round" stroke-linejoin="round"/>
</svg>
